<svg width="60" height="24" viewBox="0 0 60 24" fill="none" xmlns="http://www.w3.org/2000/svg">
<path fill-rule="evenodd" clip-rule="evenodd" d="M32.853 10.471C33.141 10.639 33.459 10.723 33.807 10.723C34.203 10.723 34.551 10.63 34.851 10.444C35.157 10.252 35.394 9.979 35.562 9.625C35.736 9.271 35.823 8.845 35.823 8.347C35.823 7.855 35.736 7.429 35.562 7.069C35.394 6.709 35.157 6.433 34.851 6.241C34.551 6.049 34.203 5.953 33.807 5.953C33.465 5.953 33.153 6.034 32.871 6.196C32.6734 6.30768 32.5204 6.44704 32.412 6.61407V4H30.81V10.624H32.394V10.0255C32.4975 10.2019 32.6505 10.3504 32.853 10.471ZM33.951 9.256C33.783 9.442 33.567 9.535 33.303 9.535C33.033 9.535 32.814 9.442 32.646 9.256C32.478 9.064 32.394 8.758 32.394 8.338C32.394 7.918 32.478 7.615 32.646 7.429C32.814 7.237 33.033 7.141 33.303 7.141C33.567 7.141 33.783 7.237 33.951 7.429C34.125 7.621 34.212 7.927 34.212 8.347C34.212 8.767 34.125 9.07 33.951 9.256Z" fill="#666666"/>
<path d="M36.1277 11.425L36.5057 12.667C36.7997 12.619 37.0697 12.559 37.3157 12.487C37.5677 12.421 37.7987 12.319 38.0087 12.181C38.2247 12.043 38.4227 11.857 38.6027 11.623C38.7887 11.389 38.9627 11.089 39.1247 10.723L41.1767 6.052H39.5927L38.5375 8.70587L37.5137 6.052H35.8217L37.7073 10.3923L37.6307 10.57C37.5587 10.744 37.4597 10.885 37.3337 10.993C37.2077 11.101 37.0457 11.185 36.8477 11.245C36.6557 11.311 36.4157 11.371 36.1277 11.425Z" fill="#666666"/>
<path d="M30 20.624L31.9309 18.2692L30.126 16.052H31.998L32.8451 17.1613L33.699 16.052H35.562L33.7672 18.2645L35.697 20.624H33.807L32.843 19.3825L31.872 20.624H30Z" fill="#666666"/>
<path d="M36.7746 20.435C37.1526 20.627 37.5936 20.723 38.0976 20.723C38.4096 20.723 38.7126 20.681 39.0066 20.597C39.3066 20.507 39.5526 20.387 39.7446 20.237L39.2946 19.148C39.1506 19.262 38.9856 19.352 38.7996 19.418C38.6136 19.478 38.4366 19.508 38.2686 19.508C37.9386 19.508 37.6806 19.409 37.4946 19.211C37.3146 19.007 37.2246 18.713 37.2246 18.329C37.2246 17.945 37.3146 17.654 37.4946 17.456C37.6806 17.258 37.9386 17.159 38.2686 17.159C38.4426 17.159 38.6196 17.192 38.7996 17.258C38.9856 17.318 39.1506 17.408 39.2946 17.528L39.7446 16.439C39.5586 16.283 39.3156 16.163 39.0156 16.079C38.7156 15.995 38.4096 15.953 38.0976 15.953C37.5936 15.953 37.1526 16.049 36.7746 16.241C36.3966 16.427 36.1026 16.697 35.8926 17.051C35.6826 17.405 35.5776 17.831 35.5776 18.329C35.5776 18.827 35.6826 19.256 35.8926 19.616C36.1026 19.97 36.3966 20.243 36.7746 20.435Z" fill="#666666"/>
<path fill-rule="evenodd" clip-rule="evenodd" d="M42.6058 20.723C42.0958 20.723 41.6548 20.627 41.2828 20.435C40.9108 20.243 40.6228 19.97 40.4188 19.616C40.2148 19.256 40.1128 18.83 40.1128 18.338C40.1128 17.84 40.2148 17.414 40.4188 17.06C40.6228 16.706 40.9108 16.433 41.2828 16.241C41.6548 16.049 42.0958 15.953 42.6058 15.953C43.1098 15.953 43.5478 16.049 43.9198 16.241C44.2918 16.433 44.5798 16.709 44.7838 17.069C44.9878 17.423 45.0898 17.846 45.0898 18.338C45.0898 18.824 44.9878 19.247 44.7838 19.607C44.5798 19.967 44.2918 20.243 43.9198 20.435C43.5478 20.627 43.1098 20.723 42.6058 20.723ZM42.6058 19.535C42.8698 19.535 43.0798 19.442 43.2358 19.256C43.3918 19.064 43.4698 18.758 43.4698 18.338C43.4698 17.918 43.3918 17.615 43.2358 17.429C43.0798 17.237 42.8698 17.141 42.6058 17.141C42.3358 17.141 42.1228 17.237 41.9668 17.429C41.8108 17.615 41.7328 17.918 41.7328 18.338C41.7328 18.758 41.8108 19.064 41.9668 19.256C42.1228 19.442 42.3358 19.535 42.6058 19.535Z" fill="#666666"/>
<path fill-rule="evenodd" clip-rule="evenodd" d="M46.6485 20.444C46.9545 20.63 47.3025 20.723 47.6925 20.723C48.0525 20.723 48.3735 20.639 48.6555 20.471C48.8481 20.3586 48.9951 20.2221 49.0965 20.0614V20.624H50.6715V14H49.0695V16.5686C48.9647 16.4216 48.8207 16.2974 48.6375 16.196C48.3555 16.034 48.0405 15.953 47.6925 15.953C47.3025 15.953 46.9515 16.049 46.6395 16.241C46.3335 16.427 46.0935 16.7 45.9195 17.06C45.7515 17.414 45.6675 17.84 45.6675 18.338C45.6675 18.83 45.7545 19.256 45.9285 19.616C46.1025 19.976 46.3425 20.252 46.6485 20.444ZM48.8535 19.256C48.6855 19.442 48.4695 19.535 48.2055 19.535C47.9355 19.535 47.7135 19.442 47.5395 19.256C47.3715 19.064 47.2875 18.758 47.2875 18.338C47.2875 17.918 47.3715 17.615 47.5395 17.429C47.7135 17.237 47.9355 17.141 48.2055 17.141C48.4695 17.141 48.6855 17.237 48.8535 17.429C49.0275 17.615 49.1145 17.918 49.1145 18.338C49.1145 18.758 49.0275 19.064 48.8535 19.256Z" fill="#666666"/>
<path fill-rule="evenodd" clip-rule="evenodd" d="M54.0784 20.723C53.2504 20.723 52.6054 20.51 52.1434 20.084C51.6874 19.658 51.4594 19.073 51.4594 18.329C51.4594 17.867 51.5554 17.456 51.7474 17.096C51.9394 16.736 52.2094 16.457 52.5574 16.259C52.9054 16.055 53.3134 15.953 53.7814 15.953C54.2434 15.953 54.6274 16.055 54.9334 16.259C55.2454 16.457 55.4794 16.733 55.6354 17.087C55.7914 17.435 55.8694 17.84 55.8694 18.302V18.644H52.9884C53.0245 18.9105 53.1178 19.1145 53.2684 19.256C53.4664 19.442 53.7514 19.535 54.1234 19.535C54.3634 19.535 54.5884 19.508 54.7984 19.454C55.0144 19.4 55.2184 19.313 55.4104 19.193L55.8244 20.237C55.5964 20.393 55.3324 20.513 55.0324 20.597C54.7324 20.681 54.4144 20.723 54.0784 20.723ZM53.1784 17.312C53.0805 17.4526 53.0173 17.6446 52.9889 17.888H54.5342C54.5196 17.6094 54.4547 17.3994 54.3394 17.258C54.2134 17.09 54.0334 17.006 53.7994 17.006C53.5294 17.006 53.3224 17.108 53.1784 17.312Z" fill="#666666"/>
<path d="M56.6143 16.673C56.6263 16.883 56.6323 17.093 56.6323 17.303V20.624H58.2523V18.5C58.2523 18.218 58.2853 17.987 58.3513 17.807C58.4233 17.627 58.5373 17.495 58.6933 17.411C58.8493 17.321 59.0503 17.276 59.2963 17.276C59.4403 17.276 59.5573 17.285 59.6473 17.303C59.7373 17.321 59.8573 17.363 60.0073 17.429V16.025C59.9353 15.995 59.8663 15.977 59.8003 15.971C59.7403 15.959 59.6473 15.953 59.5213 15.953C59.2513 15.953 59.0173 16.007 58.8193 16.115C58.6213 16.223 58.4563 16.388 58.3243 16.61C58.2807 16.6832 58.2411 16.763 58.2054 16.8493L58.1083 16.052H56.5603C56.5843 16.256 56.6023 16.463 56.6143 16.673Z" fill="#666666"/>
<path d="M0 9.6C0 6.23968 0 4.55953 0.653961 3.27606C1.2292 2.14708 2.14708 1.2292 3.27606 0.653961C4.55953 0 6.23969 0 9.6 0H14.4C17.7603 0 19.4405 0 20.7239 0.653961C21.8529 1.2292 22.7708 2.14708 23.346 3.27606C24 4.55953 24 6.23969 24 9.6V14.4C24 17.7603 24 19.4405 23.346 20.7239C22.7708 21.8529 21.8529 22.7708 20.7239 23.346C19.4405 24 17.7603 24 14.4 24H9.6C6.23968 24 4.55953 24 3.27606 23.346C2.14708 22.7708 1.2292 21.8529 0.653961 20.7239C0 19.4405 0 17.7603 0 14.4V9.6Z" fill="#666666"/>
<path d="M10.6172 12.3265L6 18H9.8414L12.4872 14.6272L15.1152 18H19L14.397 12.3247L18.6962 7H14.8548L12.4913 10.075L10.1452 7H6.28214L10.6172 12.3265Z" fill="#201923"/>
</svg>
